<?xml version="1.0" encoding="UTF-8"?>
<!DOCTYPE svg PUBLIC "-//W3C//DTD SVG 1.1//EN" "http://www.w3.org/Graphics/SVG/1.1/DTD/svg11.dtd">
<svg version="1.2" width="77.99mm" height="17.99mm" viewBox="2500 8700 7799 1799" preserveAspectRatio="xMidYMid" fill-rule="evenodd" stroke-width="28.222" stroke-linejoin="round" xmlns="http://www.w3.org/2000/svg" xmlns:ooo="http://xml.openoffice.org/svg/export" xmlns:xlink="http://www.w3.org/1999/xlink" xmlns:presentation="http://sun.com/xmlns/staroffice/presentation" xmlns:smil="http://www.w3.org/2001/SMIL20/" xmlns:anim="urn:oasis:names:tc:opendocument:xmlns:animation:1.0" xml:space="preserve">
 <defs class="ClipPathGroup">
  <clipPath id="presentation_clip_path" clipPathUnits="userSpaceOnUse">
   <rect x="2500" y="8700" width="7799" height="1799"/>
  </clipPath>
  <clipPath id="presentation_clip_path_shrink" clipPathUnits="userSpaceOnUse">
   <rect x="2507" y="8701" width="7784" height="1796"/>
  </clipPath>
 </defs>
 <defs class="TextShapeIndex">
  <g ooo:slide="id1" ooo:id-list="id3"/>
 </defs>
 <defs class="EmbeddedBulletChars">
  <g id="bullet-char-template-57356" transform="scale(0.00048828125,-0.00048828125)">
   <path d="M 580,1141 L 1163,571 580,0 -4,571 580,1141 Z"/>
  </g>
  <g id="bullet-char-template-57354" transform="scale(0.00048828125,-0.00048828125)">
   <path d="M 8,1128 L 1137,1128 1137,0 8,0 8,1128 Z"/>
  </g>
  <g id="bullet-char-template-10146" transform="scale(0.00048828125,-0.00048828125)">
   <path d="M 174,0 L 602,739 174,1481 1456,739 174,0 Z M 1358,739 L 309,1346 659,739 1358,739 Z"/>
  </g>
  <g id="bullet-char-template-10132" transform="scale(0.00048828125,-0.00048828125)">
   <path d="M 2015,739 L 1276,0 717,0 1260,543 174,543 174,936 1260,936 717,1481 1274,1481 2015,739 Z"/>
  </g>
  <g id="bullet-char-template-10007" transform="scale(0.00048828125,-0.00048828125)">
   <path d="M 0,-2 C -7,14 -16,27 -25,37 L 356,567 C 262,823 215,952 215,954 215,979 228,992 255,992 264,992 276,990 289,987 310,991 331,999 354,1012 L 381,999 492,748 772,1049 836,1024 860,1049 C 881,1039 901,1025 922,1006 886,937 835,863 770,784 769,783 710,716 594,584 L 774,223 C 774,196 753,168 711,139 L 727,119 C 717,90 699,76 672,76 641,76 570,178 457,381 L 164,-76 C 142,-110 111,-127 72,-127 30,-127 9,-110 8,-76 1,-67 -2,-52 -2,-32 -2,-23 -1,-13 0,-2 Z"/>
  </g>
  <g id="bullet-char-template-10004" transform="scale(0.00048828125,-0.00048828125)">
   <path d="M 285,-33 C 182,-33 111,30 74,156 52,228 41,333 41,471 41,549 55,616 82,672 116,743 169,778 240,778 293,778 328,747 346,684 L 369,508 C 377,444 397,411 428,410 L 1163,1116 C 1174,1127 1196,1133 1229,1133 1271,1133 1292,1118 1292,1087 L 1292,965 C 1292,929 1282,901 1262,881 L 442,47 C 390,-6 338,-33 285,-33 Z"/>
  </g>
  <g id="bullet-char-template-9679" transform="scale(0.00048828125,-0.00048828125)">
   <path d="M 813,0 C 632,0 489,54 383,161 276,268 223,411 223,592 223,773 276,916 383,1023 489,1130 632,1184 813,1184 992,1184 1136,1130 1245,1023 1353,916 1407,772 1407,592 1407,412 1353,268 1245,161 1136,54 992,0 813,0 Z"/>
  </g>
  <g id="bullet-char-template-8226" transform="scale(0.00048828125,-0.00048828125)">
   <path d="M 346,457 C 273,457 209,483 155,535 101,586 74,649 74,723 74,796 101,859 155,911 209,963 273,989 346,989 419,989 480,963 531,910 582,859 608,796 608,723 608,648 583,586 532,535 482,483 420,457 346,457 Z"/>
  </g>
  <g id="bullet-char-template-8211" transform="scale(0.00048828125,-0.00048828125)">
   <path d="M -4,459 L 1135,459 1135,606 -4,606 -4,459 Z"/>
  </g>
  <g id="bullet-char-template-61548" transform="scale(0.00048828125,-0.00048828125)">
   <path d="M 173,740 C 173,903 231,1043 346,1159 462,1274 601,1332 765,1332 928,1332 1067,1274 1183,1159 1299,1043 1357,903 1357,740 1357,577 1299,437 1183,322 1067,206 928,148 765,148 601,148 462,206 346,322 231,437 173,577 173,740 Z"/>
  </g>
 </defs>
 <defs class="TextEmbeddedBitmaps"/>
 <g class="SlideGroup">
  <g>
   <g id="container-id1">
    <g id="id1" class="Slide" clip-path="url(#presentation_clip_path)">
     <g class="Page">
      <g class="Graphic">
       <title>background
       </title>
       <g id="id3">
        <rect class="BoundingBox" stroke="none" fill="none" x="2500" y="8700" width="7800" height="1800"/>
        <defs>
         <clipPath id="clip_path_1" clipPathUnits="userSpaceOnUse">
          <path d="M 2500,8700 L 10299,8700 10299,10499 2500,10499 2500,8700 Z"/>
         </clipPath>
        </defs>
        <g clip-path="url(#clip_path_1)"/>
        <defs>
         <clipPath id="clip_path_2" clipPathUnits="userSpaceOnUse">
          <path d="M 2500,8700 L 10299,8700 10299,10499 2500,10499 2500,8700 Z"/>
         </clipPath>
        </defs>
        <g clip-path="url(#clip_path_2)">
         <path fill="rgb(255,255,255)" stroke="none" d="M 4747,11752 L 2469,11752 2469,8610 7026,8610 7026,11752 4747,11752 Z"/>
         <path fill="rgb(0,0,0)" stroke="none" d="M 3697,9876 C 3697,9886 3697,9894 3696,9901 3695,9904 3694,9907 3692,9908 3688,9910 3686,9913 3684,9916 3678,9924 3673,9933 3668,9942 3663,9951 3657,9959 3650,9967 3647,9972 3642,9974 3637,9975 3630,9978 3623,9982 3617,9986 3596,10001 3576,10016 3557,10032 3549,10039 3541,10046 3533,10053 3519,10064 3507,10077 3496,10091 3485,10105 3473,10119 3461,10132 3454,10140 3448,10149 3442,10158 3439,10164 3440,10168 3445,10172 3457,10183 3471,10187 3486,10183 3500,10179 3509,10182 3519,10194 3523,10201 3526,10209 3526,10217 3526,10229 3531,10237 3539,10244 3552,10255 3559,10270 3562,10288 3565,10308 3565,10328 3555,10347 3554,10349 3552,10352 3550,10353 3549,10354 3548,10355 3547,10355 3545,10354 3544,10352 3544,10350 3544,10349 3544,10347 3545,10345 3547,10339 3547,10334 3548,10328 3548,10326 3548,10324 3548,10323 3545,10316 3544,10310 3543,10303 3543,10301 3542,10299 3541,10297 3532,10287 3523,10275 3508,10274 3491,10273 3475,10269 3458,10267 3450,10262 3441,10264 3433,10259 3430,10257 3427,10257 3425,10256 3418,10255 3412,10254 3405,10252 3397,10250 3395,10251 3392,10261 3389,10268 3388,10268 3381,10269 3360,10272 3338,10270 3317,10272 3317,10272 3316,10272 3316,10272 3296,10270 3276,10273 3256,10273 3241,10273 3227,10273 3212,10273 3207,10273 3202,10273 3199,10267 3198,10266 3198,10265 3197,10265 3189,10262 3182,10257 3176,10250 3174,10248 3172,10249 3170,10250 3167,10252 3164,10254 3161,10256 3160,10257 3159,10259 3158,10260 3156,10261 3154,10262 3152,10260 3149,10258 3150,10255 3152,10253 3157,10245 3162,10236 3173,10234 3175,10233 3179,10232 3178,10228 3177,10224 3173,10224 3170,10224 3168,10224 3166,10225 3164,10226 3159,10230 3153,10233 3150,10239 3149,10241 3148,10241 3146,10241 3144,10240 3144,10238 3145,10236 3147,10232 3148,10228 3150,10224 3151,10219 3154,10216 3158,10213 3168,10206 3178,10204 3190,10208 3197,10210 3204,10209 3210,10210 3223,10211 3235,10217 3247,10221 3250,10222 3253,10223 3256,10223 3266,10223 3269,10221 3272,10210 3273,10204 3275,10198 3278,10192 3280,10188 3280,10187 3276,10186 3264,10183 3264,10183 3269,10171 3274,10161 3273,10151 3271,10141 3270,10136 3267,10132 3262,10130 3257,10129 3253,10129 3248,10128 3246,10127 3244,10129 3243,10131 3241,10133 3238,10136 3236,10138 3232,10143 3227,10145 3221,10146 3214,10146 3208,10147 3202,10146 3198,10145 3195,10147 3193,10152 3190,10158 3186,10160 3182,10158 3177,10155 3174,10149 3176,10144 3176,10142 3177,10140 3177,10138 3182,10118 3194,10105 3213,10100 3218,10098 3222,10097 3227,10094 3229,10093 3231,10093 3233,10093 3237,10094 3241,10094 3244,10093 3246,10093 3247,10092 3248,10093 3255,10097 3264,10097 3271,10102 3277,10107 3285,10110 3291,10115 3292,10116 3294,10117 3296,10117 3302,10120 3309,10117 3315,10120 3321,10123 3329,10123 3336,10123 3341,10124 3347,10122 3353,10121 3353,10121 3354,10121 3355,10120 3358,10116 3364,10115 3367,10112 3371,10106 3377,10103 3384,10100 3385,10099 3388,10098 3389,10097 3392,10091 3398,10089 3404,10088 3408,10088 3411,10085 3414,10083 3419,10079 3425,10075 3431,10071 3432,10070 3435,10069 3436,10067 3451,10052 3468,10041 3484,10027 3497,10014 3511,10001 3521,9985 3523,9981 3524,9978 3522,9975 3514,9959 3512,9942 3513,9924 3514,9912 3515,9901 3513,9889 3511,9879 3511,9869 3511,9860 3511,9854 3509,9851 3505,9848 3493,9841 3484,9830 3473,9822 3457,9808 3443,9792 3429,9776 3420,9767 3412,9758 3403,9749 3399,9745 3395,9741 3392,9736 3390,9734 3389,9732 3388,9731 3369,9716 3353,9699 3336,9682 3327,9674 3318,9666 3307,9659 3276,9640 3247,9619 3217,9598 3192,9581 3171,9560 3149,9539 3130,9521 3109,9505 3087,9490 3067,9476 3045,9465 3025,9451 3009,9439 2992,9430 2978,9416 2974,9412 2971,9413 2969,9419 2967,9428 2962,9437 2963,9446 2963,9460 2962,9474 2963,9488 2965,9510 2969,9533 2971,9555 2974,9581 2979,9605 2983,9630 2986,9647 2990,9663 2995,9679 2999,9696 3003,9712 3006,9729 3010,9748 3014,9766 3018,9785 3019,9789 3021,9794 3018,9796 3015,9799 3011,9795 3008,9793 2991,9783 2975,9771 2962,9756 2950,9744 2938,9731 2928,9716 2916,9699 2903,9681 2893,9663 2880,9640 2866,9618 2855,9595 2847,9581 2837,9568 2831,9553 2830,9551 2828,9550 2826,9548 2823,9544 2818,9541 2817,9535 2816,9534 2815,9532 2813,9531 2809,9527 2805,9522 2801,9516 2794,9505 2791,9504 2779,9509 2766,9514 2755,9510 2744,9503 2742,9502 2740,9499 2740,9497 2738,9489 2733,9484 2727,9480 2719,9475 2713,9468 2707,9461 2701,9454 2695,9447 2687,9442 2684,9440 2681,9438 2681,9434 2681,9425 2678,9418 2675,9411 2671,9404 2669,9396 2665,9388 2665,9387 2664,9386 2665,9385 2666,9378 2662,9372 2661,9365 2660,9361 2658,9356 2656,9353 2655,9350 2654,9348 2654,9346 2650,9332 2648,9318 2643,9305 2642,9303 2642,9301 2642,9300 2640,9291 2639,9282 2639,9273 2638,9269 2637,9265 2639,9262 2641,9255 2645,9250 2644,9242 2650,9237 2648,9231 2649,9224 2649,9221 2648,9218 2653,9218 2654,9218 2655,9216 2655,9214 2656,9212 2656,9209 2656,9206 2657,9202 2657,9198 2659,9195 2664,9186 2665,9176 2670,9168 2672,9166 2672,9163 2673,9161 2674,9159 2675,9156 2676,9154 2686,9148 2689,9137 2692,9126 2694,9119 2693,9110 2698,9103 2699,9102 2698,9100 2698,9098 2697,9096 2697,9094 2700,9092 2702,9091 2702,9088 2703,9086 2704,9082 2705,9077 2705,9073 2706,9070 2706,9068 2710,9067 2714,9066 2715,9060 2720,9060 2722,9055 2723,9056 2725,9060 2726,9063 2727,9061 2728,9060 2729,9056 2730,9052 2733,9049 2736,9046 2737,9046 2740,9050 2741,9052 2742,9053 2744,9050 2745,9049 2746,9049 2747,9049 2751,9049 2751,9047 2751,9044 2751,9041 2751,9039 2752,9036 2753,9032 2755,9031 2759,9033 2763,9036 2763,9036 2764,9030 2764,9027 2764,9023 2764,9020 2765,9017 2765,9015 2768,9016 2770,9016 2770,9018 2770,9020 2770,9020 2770,9020 2770,9021 2770,9024 2769,9027 2772,9029 2773,9030 2775,9025 2775,9020 2775,9016 2774,9013 2773,9009 2773,9009 2773,9008 2774,9007 2774,9006 2775,9007 2776,9008 2776,9009 2777,9010 2778,9012 2779,9013 2778,9016 2781,9015 2782,9015 2784,9013 2784,9011 2785,9002 2791,8996 2798,8990 2801,8988 2803,8985 2806,8983 2808,8980 2810,8978 2814,8979 2815,8979 2816,8977 2817,8976 2820,8973 2820,8974 2821,8978 2821,8983 2826,8985 2830,8987 2833,8989 2835,8986 2837,8983 2839,8980 2841,8977 2842,8973 2842,8970 2844,8967 2848,8967 2854,8967 2857,8962 2861,8958 2863,8954 2864,8951 2869,8953 2871,8954 2872,8952 2874,8951 2875,8949 2877,8948 2879,8947 2881,8947 2882,8947 2883,8949 2885,8953 2885,8953 2887,8949 2888,8948 2888,8946 2889,8944 2892,8939 2892,8939 2896,8943 2900,8946 2901,8946 2905,8943 2910,8940 2913,8937 2918,8933 2919,8932 2921,8930 2924,8930 2926,8930 2929,8928 2930,8930 2932,8932 2929,8934 2928,8936 2928,8937 2927,8939 2928,8940 2929,8941 2931,8940 2931,8939 2935,8932 2942,8931 2947,8927 2950,8925 2953,8925 2956,8928 2959,8931 2964,8931 2966,8934 2967,8936 2969,8934 2970,8933 2971,8931 2973,8929 2974,8928 2979,8923 2984,8921 2990,8924 2994,8926 2996,8925 2998,8922 2999,8920 3001,8919 3003,8919 3009,8919 3013,8915 3018,8912 3027,8904 3037,8897 3046,8889 3051,8885 3057,8881 3062,8878 3069,8874 3075,8869 3080,8865 3088,8859 3096,8853 3106,8850 3113,8847 3120,8842 3127,8838 3130,8836 3132,8834 3136,8834 3139,8835 3141,8833 3143,8832 3145,8831 3147,8830 3150,8829 3151,8829 3152,8829 3153,8830 3154,8831 3153,8832 3152,8834 3152,8834 3151,8835 3151,8835 3147,8839 3147,8839 3152,8841 3154,8842 3154,8843 3154,8844 3153,8845 3153,8846 3152,8848 3151,8849 3151,8849 3152,8850 3152,8851 3153,8851 3154,8850 3163,8846 3173,8843 3182,8838 3191,8834 3200,8829 3210,8827 3215,8826 3219,8823 3224,8821 3234,8815 3246,8811 3258,8809 3258,8809 3259,8809 3260,8809 3276,8803 3293,8805 3309,8799 3315,8797 3322,8798 3328,8799 3333,8800 3337,8800 3341,8799 3347,8797 3354,8796 3361,8798 3364,8799 3368,8798 3372,8797 3386,8796 3401,8798 3415,8798 3429,8798 3444,8799 3458,8804 3459,8804 3460,8805 3461,8805 3473,8804 3484,8811 3495,8812 3496,8812 3498,8813 3499,8813 3507,8821 3518,8822 3527,8827 3545,8837 3564,8843 3582,8852 3586,8854 3590,8856 3593,8859 3603,8867 3615,8871 3626,8875 3636,8878 3645,8886 3653,8893 3660,8899 3668,8904 3676,8909 3684,8914 3692,8921 3698,8929 3701,8933 3705,8936 3707,8940 3709,8945 3715,8947 3719,8950 3737,8961 3754,8974 3768,8991 3774,8997 3782,9002 3788,9009 3802,9014 3810,9027 3822,9035 3833,9041 3844,9045 3855,9047 3869,9049 3882,9053 3894,9059 3910,9066 3927,9071 3944,9078 3971,9089 3999,9099 4025,9113 4036,9118 4046,9125 4055,9133 4060,9137 4065,9141 4071,9144 4086,9151 4100,9159 4115,9167 4130,9175 4145,9182 4158,9191 4165,9196 4174,9200 4181,9204 4196,9214 4211,9224 4223,9238 4225,9240 4227,9242 4229,9243 4242,9254 4253,9266 4263,9281 4264,9282 4264,9284 4265,9285 4268,9292 4270,9298 4274,9304 4276,9307 4275,9309 4271,9310 4269,9310 4268,9310 4266,9310 4262,9309 4259,9309 4256,9309 4254,9309 4253,9309 4252,9311 4252,9312 4253,9313 4253,9314 4256,9317 4258,9320 4261,9322 4270,9330 4280,9338 4290,9346 4295,9350 4299,9355 4304,9360 4316,9373 4330,9384 4343,9397 4350,9405 4358,9414 4363,9424 4366,9430 4369,9436 4372,9442 4374,9446 4375,9450 4372,9454 4369,9457 4370,9461 4370,9464 4370,9469 4371,9474 4364,9474 4361,9475 4360,9478 4359,9481 4359,9486 4360,9490 4361,9495 4363,9503 4362,9503 4356,9508 4348,9512 4348,9514 4350,9522 4351,9530 4354,9538 4350,9546 4346,9553 4341,9557 4334,9558 4328,9558 4322,9558 4316,9557 4306,9557 4303,9560 4299,9569 4296,9577 4298,9581 4303,9586 4318,9600 4333,9616 4348,9631 4350,9634 4353,9637 4356,9639 4366,9648 4374,9658 4382,9667 4394,9681 4404,9695 4415,9709 4417,9712 4419,9714 4422,9716 4436,9730 4451,9744 4466,9758 4467,9759 4469,9760 4470,9762 4479,9774 4490,9784 4502,9795 4516,9807 4528,9824 4539,9840 4543,9847 4547,9853 4552,9860 4554,9865 4558,9869 4562,9872 4579,9884 4595,9896 4611,9909 4635,9926 4659,9943 4678,9966 4683,9971 4686,9979 4690,9985 4694,9990 4696,9995 4698,10000 4701,10007 4702,10013 4699,10020 4697,10029 4697,10029 4705,10034 4707,10035 4708,10037 4710,10038 4717,10042 4721,10050 4730,10050 4736,10057 4744,10059 4752,10064 4755,10066 4757,10071 4761,10073 4762,10074 4763,10076 4764,10076 4775,10081 4783,10090 4791,10099 4803,10112 4815,10126 4824,10142 4828,10151 4830,10159 4831,10168 4832,10173 4831,10177 4828,10181 4824,10186 4824,10188 4828,10193 4831,10199 4835,10205 4838,10211 4843,10220 4845,10230 4848,10239 4849,10245 4848,10250 4846,10255 4844,10263 4840,10265 4832,10262 4821,10256 4811,10249 4800,10242 4751,10211 4702,10180 4652,10152 4605,10126 4560,10099 4513,10075 4487,10062 4462,10050 4436,10038 4430,10035 4425,10032 4419,10030 4418,10029 4417,10029 4416,10030 4414,10031 4415,10032 4416,10034 4421,10041 4426,10049 4431,10057 4440,10070 4449,10083 4459,10096 4464,10104 4470,10111 4475,10119 4487,10136 4500,10152 4511,10170 4515,10177 4522,10182 4526,10189 4538,10206 4551,10222 4563,10238 4573,10251 4582,10263 4592,10276 4598,10284 4604,10293 4610,10302 4614,10308 4618,10314 4623,10319 4631,10327 4636,10337 4643,10345 4650,10355 4658,10365 4665,10374 4669,10378 4672,10382 4674,10388 4675,10391 4678,10392 4680,10395 4689,10407 4698,10419 4707,10432 4708,10432 4708,10434 4709,10435 4709,10436 4710,10437 4709,10438 4708,10438 4707,10438 4706,10438 4703,10437 4699,10435 4696,10434 4693,10433 4691,10433 4690,10437 4690,10443 4688,10443 4684,10441 4679,10438 4677,10434 4673,10430 4672,10429 4671,10427 4670,10428 4668,10429 4670,10431 4670,10432 4671,10434 4667,10445 4665,10446 4664,10447 4663,10447 4662,10447 4660,10446 4659,10445 4657,10444 4642,10433 4627,10423 4613,10410 4604,10400 4593,10392 4581,10388 4569,10384 4559,10375 4550,10367 4534,10354 4518,10341 4501,10329 4494,10324 4488,10318 4482,10312 4470,10300 4459,10288 4447,10277 4425,10257 4404,10236 4383,10215 4372,10203 4360,10191 4350,10179 4327,10154 4304,10129 4282,10103 4271,10091 4260,10079 4249,10067 4246,10063 4241,10060 4237,10058 4218,10048 4199,10038 4180,10027 4152,10011 4124,9995 4095,9980 4062,9962 4029,9942 3996,9923 3993,9921 3990,9919 3986,9919 3977,9919 3968,9917 3960,9915 3933,9906 3906,9897 3880,9885 3855,9874 3830,9862 3806,9849 3799,9845 3791,9845 3786,9839 3785,9838 3783,9839 3782,9840 3780,9842 3777,9842 3775,9842 3770,9840 3766,9844 3762,9846 3762,9847 3761,9848 3761,9849 3763,9853 3761,9856 3758,9859 3756,9861 3756,9864 3756,9867 3756,9872 3754,9873 3750,9870 3748,9869 3746,9867 3745,9866 3739,9861 3733,9858 3726,9859 3721,9859 3715,9857 3710,9855 3701,9853 3696,9857 3696,9867 3697,9870 3697,9874 3697,9876 L 3697,9876 Z M 3204,10132 C 3207,10132 3211,10132 3212,10128 3212,10127 3212,10125 3211,10124 3211,10123 3209,10123 3208,10124 3206,10125 3204,10126 3202,10127 3201,10128 3200,10129 3201,10131 3201,10133 3203,10132 3204,10132 L 3204,10132 Z M 3504,10209 C 3502,10207 3499,10207 3496,10208 3494,10209 3494,10211 3495,10213 3496,10215 3503,10214 3505,10212 3505,10212 3505,10211 3505,10211 3505,10210 3504,10210 3504,10209 Z M 3289,10218 C 3290,10217 3293,10218 3293,10216 3293,10213 3291,10213 3289,10213 3287,10213 3286,10213 3285,10215 3285,10217 3287,10217 3289,10218 L 3289,10218 Z"/>
         <path fill="rgb(0,0,0)" stroke="none" d="M 4899,8976 L 5316,8976 5477,9600 5638,8976 6054,8976 6054,10001 5795,10001 5795,9219 5594,10001 5359,10001 5159,9219 5159,10001 4899,10001 Z M 6946,8976 L 7262,8976 7262,9587 C 7262,9648 7253,9705 7234,9759 7215,9813 7185,9860 7145,9900 7105,9940 7062,9969 7018,9985 6956,10008 6882,10019 6796,10019 6746,10019 6691,10016 6632,10009 6573,10002 6524,9988 6484,9967 6444,9946 6408,9917 6375,9879 6342,9840 6320,9801 6307,9760 6288,9695 6278,9637 6278,9587 L 6278,8976 6595,8976 6595,9602 C 6595,9658 6610,9701 6641,9733 6672,9764 6715,9780 6771,9780 6825,9780 6868,9765 6899,9734 6930,9703 6946,9659 6946,9602 Z M 7475,8976 L 7771,8976 8158,9543 8158,8976 8457,8976 8457,10001 8158,10001 7774,9438 7774,10001 7475,10001 Z M 8681,8976 L 8999,8976 8999,10001 8681,10001 Z M 9209,8976 L 9505,8976 9892,9543 9892,8976 10191,8976 10191,10001 9892,10001 9507,9438 9507,10001 9209,10001 Z"/>
        </g>
        <g clip-path="url(#clip_path_1)"/>
       </g>
      </g>
     </g>
    </g>
   </g>
  </g>
 </g>
</svg>